<?xml version="1.0" standalone="no"?>
<!DOCTYPE svg PUBLIC "-//W3C//DTD SVG 20010904//EN"
 "http://www.w3.org/TR/2001/REC-SVG-20010904/DTD/svg10.dtd">
<svg version="1.0" xmlns="http://www.w3.org/2000/svg"
 width="512.000000pt" height="512.000000pt" viewBox="0 0 512.000000 512.000000"
 preserveAspectRatio="xMidYMid meet">

<g transform="translate(0.000000,512.000000) scale(0.100000,-0.100000)"
fill="#000000" stroke="none">
<path d="M848 5111 c-65 -21 -118 -81 -133 -149 -19 -89 -46 -46 801 -1257
436 -625 794 -1140 794 -1145 0 -5 -357 -520 -794 -1144 -622 -890 -796 -1145
-801 -1176 -15 -89 27 -179 101 -216 59 -29 150 -26 200 7 30 20 211 272 788
1098 411 589 752 1071 756 1071 4 0 345 -482 756 -1071 577 -825 758 -1078
788 -1098 50 -33 141 -36 200 -7 74 37 116 127 101 216 -5 31 -179 286 -801
1176 -437 624 -794 1139 -794 1144 0 5 358 520 795 1145 846 1211 818 1168
800 1257 -10 48 -48 102 -92 129 -56 35 -154 34 -209 -2 -30 -20 -208 -268
-788 -1098 -411 -589 -752 -1071 -756 -1071 -4 0 -345 482 -756 1071 -548 783
-759 1078 -785 1096 -41 27 -125 38 -171 24z"/>
</g>
</svg>
