<?xml version="1.0" standalone="no"?>
<!DOCTYPE svg PUBLIC "-//W3C//DTD SVG 20010904//EN"
 "http://www.w3.org/TR/2001/REC-SVG-20010904/DTD/svg10.dtd">
<svg version="1.0" xmlns="http://www.w3.org/2000/svg"
 width="512.000000pt" height="512.000000pt" viewBox="0 0 512.000000 512.000000"
 preserveAspectRatio="xMidYMid meet">

<g transform="translate(0.000000,512.000000) scale(0.100000,-0.100000)"
fill="#000000" stroke="none">
<path d="M1946 3800 l-606 -532 2 -162 3 -161 203 -3 202 -2 0 -235 0 -235 30
0 c65 0 189 -33 270 -72 120 -57 239 -177 298 -298 55 -112 72 -184 72 -299
l0 -96 71 -71 71 -72 69 72 68 71 1 95 c0 117 17 189 71 299 50 102 156 218
251 274 76 45 193 84 282 93 l66 7 0 233 0 234 203 2 202 3 3 162 2 162 -600
526 c-330 289 -607 528 -614 531 -8 3 -261 -212 -620 -526z"/>
<path d="M1650 2186 c-116 -32 -211 -109 -262 -214 -31 -63 -33 -72 -33 -177
0 -104 2 -114 32 -176 41 -82 111 -150 201 -192 61 -29 76 -32 162 -32 86 0
101 3 162 32 90 42 160 110 201 192 30 62 32 72 32 176 0 99 -3 116 -27 168
-82 176 -287 273 -468 223z"/>
<path d="M3270 2186 c-116 -32 -211 -109 -262 -214 -31 -63 -33 -72 -33 -177
0 -104 2 -114 32 -176 41 -82 111 -150 201 -192 61 -29 76 -32 162 -32 86 0
101 3 162 32 90 42 160 110 201 192 30 62 32 72 32 176 0 99 -3 116 -27 168
-82 176 -287 273 -468 223z"/>
<path d="M1141 1379 c-58 -79 -65 -121 -66 -369 l0 -225 675 0 675 0 -1 230
c-1 211 -3 235 -23 285 -12 30 -34 70 -49 89 l-29 33 -89 -89 c-149 -151 -283
-208 -484 -208 -201 0 -335 57 -483 206 -48 49 -90 89 -92 89 -3 0 -18 -18
-34 -41z"/>
<path d="M2761 1379 c-58 -79 -65 -121 -66 -369 l0 -225 675 0 675 0 -1 230
c-1 211 -3 235 -23 285 -12 30 -34 70 -49 89 l-29 33 -89 -89 c-149 -151 -283
-208 -484 -208 -201 0 -335 57 -483 206 -48 49 -90 89 -92 89 -3 0 -18 -18
-34 -41z"/>
</g>
</svg>
