<svg width="205" height="153" viewBox="0 0 205 153" fill="none" xmlns="http://www.w3.org/2000/svg">
<path d="M173 76.5C173 117.075 139.888 150 99 150C58.1125 150 25 117.075 25 76.5C25 35.9255 58.1125 3 99 3C139.888 3 173 35.9255 173 76.5Z" stroke="#56B3E7" stroke-width="6"/>
<path d="M49.1932 47.1818H63.9545V92.5227C63.9545 97.6136 62.7386 102.068 60.3068 105.886C57.8977 109.705 54.5227 112.682 50.1818 114.818C45.8409 116.932 40.7841 117.989 35.0114 117.989C29.2159 117.989 24.1477 116.932 19.8068 114.818C15.4659 112.682 12.0909 109.705 9.68182 105.886C7.27273 102.068 6.06818 97.6136 6.06818 92.5227V47.1818H20.8295V91.2614C20.8295 93.9205 21.4091 96.2841 22.5682 98.3523C23.75 100.42 25.4091 102.045 27.5455 103.227C29.6818 104.409 32.1705 105 35.0114 105C37.875 105 40.3636 104.409 42.4773 103.227C44.6136 102.045 46.2614 100.42 47.4205 98.3523C48.6023 96.2841 49.1932 93.9205 49.1932 91.2614V47.1818ZM137.702 71.625H122.77C122.497 69.6932 121.94 67.9773 121.099 66.4773C120.259 64.9545 119.179 63.6591 117.861 62.5909C116.543 61.5227 115.02 60.7045 113.293 60.1364C111.588 59.5682 109.736 59.2841 107.736 59.2841C104.122 59.2841 100.974 60.1818 98.2926 61.9773C95.6108 63.75 93.5313 66.3409 92.054 69.75C90.5767 73.1364 89.8381 77.25 89.8381 82.0909C89.8381 87.0682 90.5767 91.25 92.054 94.6364C93.554 98.0227 95.6449 100.58 98.3267 102.307C101.009 104.034 104.111 104.898 107.634 104.898C109.611 104.898 111.44 104.636 113.122 104.114C114.827 103.591 116.338 102.83 117.656 101.83C118.974 100.807 120.065 99.5682 120.929 98.1136C121.815 96.6591 122.429 95 122.77 93.1364L137.702 93.2045C137.315 96.4091 136.349 99.5 134.804 102.477C133.281 105.432 131.224 108.08 128.634 110.42C126.065 112.739 122.997 114.58 119.429 115.943C115.884 117.284 111.872 117.955 107.395 117.955C101.168 117.955 95.5994 116.545 90.6903 113.727C85.804 110.909 81.9403 106.83 79.0994 101.489C76.2812 96.1477 74.8722 89.6818 74.8722 82.0909C74.8722 74.4773 76.304 68 79.1676 62.6591C82.0313 57.3182 85.9176 53.25 90.8267 50.4545C95.7358 47.6364 101.259 46.2273 107.395 46.2273C111.44 46.2273 115.19 46.7955 118.645 47.9318C122.122 49.0682 125.202 50.7273 127.884 52.9091C130.565 55.0682 132.747 57.7159 134.429 60.8523C136.134 63.9886 137.224 67.5795 137.702 71.625ZM148.287 117V47.1818H175.832C181.128 47.1818 185.639 48.1932 189.366 50.2159C193.094 52.2159 195.935 55 197.889 58.5682C199.866 62.1136 200.855 66.2045 200.855 70.8409C200.855 75.4773 199.855 79.5682 197.855 83.1136C195.855 86.6591 192.957 89.4205 189.162 91.3977C185.389 93.375 180.821 94.3636 175.457 94.3636H157.901V82.5341H173.071C175.912 82.5341 178.253 82.0455 180.094 81.0682C181.957 80.0682 183.344 78.6932 184.253 76.9432C185.185 75.1705 185.651 73.1364 185.651 70.8409C185.651 68.5227 185.185 66.5 184.253 64.7727C183.344 63.0227 181.957 61.6705 180.094 60.7159C178.23 59.7386 175.866 59.25 173.003 59.25H163.048V117H148.287Z" fill="#AADF98"/>
</svg>
